<?xml version="1.0" encoding="UTF-8" standalone="no"?>
<!-- Created with Inkscape (http://www.inkscape.org/) -->
<svg
   xmlns:dc="http://purl.org/dc/elements/1.1/"
   xmlns:cc="http://creativecommons.org/ns#"
   xmlns:rdf="http://www.w3.org/1999/02/22-rdf-syntax-ns#"
   xmlns:svg="http://www.w3.org/2000/svg"
   xmlns="http://www.w3.org/2000/svg"
   xmlns:sodipodi="http://sodipodi.sourceforge.net/DTD/sodipodi-0.dtd"
   xmlns:inkscape="http://www.inkscape.org/namespaces/inkscape"
   width="1024px"
   height="768px"
   id="svg2401"
   sodipodi:version="0.32"
   inkscape:version="0.46"
   inkscape:export-filename="/home/blacklotus/chaox-ng-2.png"
   inkscape:export-xdpi="90"
   inkscape:export-ydpi="90"
   sodipodi:docname="chaox-ng.svg"
   inkscape:output_extension="org.inkscape.output.svg.inkscape">
  <defs
     id="defs2403">
    <inkscape:perspective
       sodipodi:type="inkscape:persp3d"
       inkscape:vp_x="-322.33876 : 391.07301 : 1"
       inkscape:vp_y="5.7725978e-14 : 903.74668 : 0"
       inkscape:vp_z="713.18822 : 356.18292 : 1"
       inkscape:persp3d-origin="304.25311 : -44.625063 : 1"
       id="perspective3939" />
    <inkscape:perspective
       sodipodi:type="inkscape:persp3d"
       inkscape:vp_x="-187.08142 : 331.41247 : 1"
       inkscape:vp_y="4.4764128e-14 : 706.86616 : 0"
       inkscape:vp_z="652.90806 : 265.3111 : 1"
       inkscape:persp3d-origin="298.81489 : -9.3691071 : 1"
       id="perspective3883" />
    <inkscape:perspective
       id="perspective2696"
       inkscape:persp3d-origin="267.43329 : -73.806698 : 1"
       inkscape:vp_z="898.48479 : 533.45191 : 1"
       inkscape:vp_y="6.1230318e-14 : 1000 : 0"
       inkscape:vp_x="-397.19681 : 408.29525 : 1"
       sodipodi:type="inkscape:persp3d" />
    <inkscape:perspective
       id="perspective2680"
       inkscape:persp3d-origin="295.64643 : -77.700086 : 1"
       inkscape:vp_z="768.45748 : 355.53845 : 1"
       inkscape:vp_y="6.6742815e-14 : 976.87148 : 0"
       inkscape:vp_x="-428.81951 : 393.2516 : 1"
       sodipodi:type="inkscape:persp3d" />
    <inkscape:perspective
       sodipodi:type="inkscape:persp3d"
       inkscape:vp_x="-1001.1968 : 608.29525 : 1"
       inkscape:vp_y="6.1230318e-14 : 1000 : 0"
       inkscape:vp_z="294.4848 : 733.45191 : 1"
       inkscape:persp3d-origin="-336.5667 : 126.1933 : 1"
       id="perspective2638" />
    <inkscape:perspective
       id="perspective2540"
       inkscape:persp3d-origin="444.41514 : 363.56694 : 1"
       inkscape:vp_z="609.23582 : 782.14435 : 1"
       inkscape:vp_y="1.6844168e-13 : 754.51098 : 0"
       inkscape:vp_x="-868.73896 : 674.14435 : 1"
       sodipodi:type="inkscape:persp3d" />
    <inkscape:perspective
       sodipodi:type="inkscape:persp3d"
       inkscape:vp_x="89.95339 : 261.69012 : 1"
       inkscape:vp_y="1.249371e-13 : 667.02464 : 0"
       inkscape:vp_z="1186.2016 : 357.16741 : 1"
       inkscape:persp3d-origin="1063.9503 : -12.87552 : 1"
       id="perspective2409" />
  </defs>
  <sodipodi:namedview
     id="base"
     pagecolor="#000000"
     bordercolor="#666666"
     borderopacity="1.0"
     inkscape:pageopacity="1"
     inkscape:pageshadow="2"
     inkscape:zoom="0.60306664"
     inkscape:cx="341.73469"
     inkscape:cy="394.87889"
     inkscape:current-layer="layer1"
     inkscape:document-units="px"
     showgrid="false"
     inkscape:window-width="1280"
     inkscape:window-height="740"
     inkscape:window-x="-5"
     inkscape:window-y="-3" />
  <metadata
     id="metadata2406">
    <rdf:RDF>
      <cc:Work
         rdf:about="">
        <dc:format>image/svg+xml</dc:format>
        <dc:type
           rdf:resource="http://purl.org/dc/dcmitype/StillImage" />
      </cc:Work>
    </rdf:RDF>
  </metadata>
  <g
     id="layer1"
     inkscape:label="Layer 1"
     inkscape:groupmode="layer">
    <rect
       style="opacity:1;fill:#000000;fill-opacity:0.93725491;stroke:#000000;stroke-opacity:1"
       id="rect4257"
       width="1024"
       height="768"
       x="1.6581916"
       y="0.25731337" />
    <a
       id="a3734"
       transform="matrix(1,0,0,1.1162271,-559.02685,178.6228)">
      <path
         id="path2404"
         d="M 1213.8514,54.676973 L 1209.993,54.72523 L 1208.6116,54.72523 L 1202.3238,54.821716 C 1202.3238,54.821697 1109.3897,61.092864 1061.2304,109.8702 C 1012.6633,159.06064 1006.8959,194.20757 1013.8341,236.37076 C 1020.7042,278.12042 1081.7032,313.91184 1123.6793,318.34044 C 1171.465,323.38197 1206.3931,323.26071 1215.6615,323.11676 L 1215.6615,323.35799 C 1215.6615,323.35799 1258.4262,323.37625 1313.9314,317.52026 C 1355.9075,313.09165 1416.9541,277.30024 1423.8243,235.55059 C 1430.7624,193.3874 1424.9474,158.24042 1376.3804,109.05003 C 1328.221,60.272699 1235.0486,54.725211 1235.0487,54.72523 L 1213.8514,54.72523 L 1213.8514,54.676973 z"
         style="opacity:1;fill:#000000;fill-opacity:1;fill-rule:evenodd;stroke:#ffffff;stroke-width:6.91929674;stroke-linecap:butt;stroke-linejoin:miter;stroke-miterlimit:0;stroke-dasharray:none;stroke-opacity:1" />
    </a>
    <path
       sodipodi:type="arc"
       style="opacity:1;fill:#ffffff;fill-opacity:1;fill-rule:evenodd;stroke:#ff00ff;stroke-width:0;stroke-linejoin:miter;stroke-miterlimit:0;stroke-dasharray:none;stroke-opacity:0.57647059"
       id="path4795"
       sodipodi:cx="305.42786"
       sodipodi:cy="276.97156"
       sodipodi:rx="8.3066158"
       sodipodi:ry="29.712126"
       d="M 313.73447,276.97156 A 8.3066158,29.712126 0 1 1 297.12124,276.97156 A 8.3066158,29.712126 0 1 1 313.73447,276.97156 z"
       transform="matrix(0.7780403,0,0,2.2626774,306.3098,-229.00151)" />
    <path
       sodipodi:type="arc"
       style="opacity:1;fill:#ffffff;fill-opacity:1;fill-rule:evenodd;stroke:#ff00ff;stroke-width:0;stroke-linejoin:miter;stroke-miterlimit:0;stroke-dasharray:none;stroke-opacity:0.57647059"
       id="path2815"
       sodipodi:cx="305.42786"
       sodipodi:cy="276.97156"
       sodipodi:rx="8.3066158"
       sodipodi:ry="29.712126"
       d="M 313.73447,276.97156 A 8.3066158,29.712126 0 1 1 297.12124,276.97156 A 8.3066158,29.712126 0 1 1 313.73447,276.97156 z"
       transform="matrix(0.7780403,0,0,2.2626774,339.91847,-228.93372)" />
    <path
       id="path3706"
       style="opacity:0.753125;fill:#afafde;fill-rule:evenodd;stroke:none;stroke-width:1px;stroke-linecap:butt;stroke-linejoin:round;stroke-opacity:1"
       d="M 127.17364,546.47199 L 467.94009,670.75737 L 613.26532,545.35796 L 358.76779,502.89417 L 127.17364,546.47199 z" />
    <path
       id="path3708"
       style="opacity:0.753125;fill:#353564;fill-rule:evenodd;stroke:none;stroke-width:1px;stroke-linecap:butt;stroke-linejoin:round;stroke-opacity:1"
       d="M 125.15679,531.63519 L 125.15679,542.94251 L 356.75094,499.36469 L 356.75094,492.28109 L 125.15679,531.63519 z" />
    <path
       id="path3710"
       style="opacity:0.753125;fill:#e9e9ff;fill-rule:evenodd;stroke:none;stroke-width:1px;stroke-linecap:butt;stroke-linejoin:round;stroke-opacity:1"
       d="M 358.17459,496.40375 L 612.67212,536.08173 L 612.67212,545.95114 L 358.17459,503.48735 L 358.17459,496.40375 z" />
    <a
       id="a3724"
       transform="translate(67.114244,13.94471)">
      <path
         d="M 400.32163,638.24923 L 400.32163,658.8295 L 545.64686,533.43009 L 545.64686,523.56068 L 400.32163,638.24923 z"
         style="opacity:0.753125;fill:#ff8080;fill-rule:evenodd;stroke:none;stroke-width:1px;stroke-linecap:butt;stroke-linejoin:round;stroke-opacity:1"
         id="path3714" />
    </a>
    <path
       id="path3712"
       style="opacity:1;fill:#ff5555;fill-rule:evenodd;stroke:none;stroke-width:1px;stroke-linecap:butt;stroke-linejoin:round;stroke-opacity:1"
       d="M 127.67785,536.1731 L 468.44431,651.18553 L 613.76954,536.49698 L 359.27201,496.819 L 127.67785,536.1731 z" />
    <path
       id="path3716"
       style="opacity:0.753125;fill:#8686bf;fill-rule:evenodd;stroke:none;stroke-width:1px;stroke-linecap:butt;stroke-linejoin:round;stroke-opacity:1"
       d="M 125.15679,531.63519 L 465.92324,646.64762 L 465.92324,667.22789 L 125.15679,542.94251 L 125.15679,531.63519 z" />
    <path
       id="path3685"
       style="fill:#353564;fill-rule:evenodd;stroke:none;stroke-width:1px;stroke-linecap:butt;stroke-linejoin:round;stroke-opacity:1"
       d="M 107.55517,283.87026 L 107.55517,537.39794 L 136.44406,527.50226 L 136.44406,282.54152 L 107.55517,283.87026 z" />
    <text
       xml:space="preserve"
       style="font-size:40px;font-style:normal;font-weight:normal;fill:#000000;fill-opacity:1;stroke:none;stroke-width:1px;stroke-linecap:butt;stroke-linejoin:miter;stroke-opacity:1;font-family:Bitstream Vera Sans"
       x="359"
       y="98"
       id="text3782"><tspan
         sodipodi:role="line"
         id="tspan3784"
         x="359"
         y="98" /></text>
    <flowRoot
       xml:space="preserve"
       id="flowRoot3803"
       style="font-size:40px;font-style:normal;font-weight:normal;fill:#000000;fill-opacity:1;stroke:none;stroke-width:1px;stroke-linecap:butt;stroke-linejoin:miter;stroke-opacity:1;font-family:Bitstream Vera Sans"
       transform="matrix(1.9763147,0,0,2.615142,-1282.9131,-99.14644)"><flowRegion
         id="flowRegion3805"><rect
           id="rect3807"
           width="294"
           height="66"
           x="814"
           y="42" /></flowRegion><flowPara
         id="flowPara3809"
         style="fill:#ffd5d5"><flowSpan
           style="fill:#ffffff"
           id="flowSpan4183">Chaox</flowSpan><flowSpan
           style="fill:#e9afaf"
           id="flowSpan4187">-</flowSpan><flowSpan
           style="fill:#ff6600"
           id="flowSpan3811">NG</flowSpan></flowPara></flowRoot>    <g
       sodipodi:type="inkscape:box3d"
       style="opacity:1;fill:#6c5353;fill-opacity:1;stroke:#ffffff;stroke-opacity:1"
       id="g3869"
       inkscape:perspectiveID="#perspective3883"
       inkscape:corner0="-0.29816733 : 0.29416354 : 0 : 1"
       inkscape:corner7="-0.29917908 : 0.28445145 : 0.053731853 : 1">
      <path
         sodipodi:type="inkscape:box3dside"
         id="path3879"
         style="fill:#6c5353;fill-opacity:1;fill-rule:evenodd;stroke:none;stroke-width:1px;stroke-linecap:butt;stroke-linejoin:round;stroke-opacity:1"
         inkscape:box3dsidetype="13"
         d="M 505.24359,635.6556 L 506.24307,635.94298 L 516.68712,626.45393 L 515.74473,626.19969 L 505.24359,635.6556 z" />
      <path
         sodipodi:type="inkscape:box3dside"
         id="path3871"
         style="fill:#6c5353;fill-opacity:1;fill-rule:evenodd;stroke:none;stroke-width:1px;stroke-linecap:butt;stroke-linejoin:round;stroke-opacity:1"
         inkscape:box3dsidetype="6"
         d="M 505.24359,625.87385 L 505.24359,635.6556 L 515.74473,626.19969 L 515.74473,617.11357 L 505.24359,625.87385 z" />
      <path
         sodipodi:type="inkscape:box3dside"
         id="path3881"
         style="fill:#6c5353;fill-opacity:1;fill-rule:evenodd;stroke:none;stroke-width:1px;stroke-linecap:butt;stroke-linejoin:round;stroke-opacity:1"
         inkscape:box3dsidetype="11"
         d="M 515.74473,617.11357 L 516.68712,617.35563 L 516.68712,626.45393 L 515.74473,626.19969 L 515.74473,617.11357 z" />
      <path
         sodipodi:type="inkscape:box3dside"
         id="path3873"
         style="fill:#6c5353;fill-opacity:1;fill-rule:evenodd;stroke:none;stroke-width:1px;stroke-linecap:butt;stroke-linejoin:round;stroke-opacity:1"
         inkscape:box3dsidetype="5"
         d="M 505.24359,625.87385 L 506.24307,626.14712 L 516.68712,617.35563 L 515.74473,617.11357 L 505.24359,625.87385 z" />
      <path
         sodipodi:type="inkscape:box3dside"
         id="path3877"
         style="fill:#6c5353;fill-opacity:1;fill-rule:evenodd;stroke:none;stroke-width:1px;stroke-linecap:butt;stroke-linejoin:round;stroke-opacity:1"
         inkscape:box3dsidetype="14"
         d="M 506.24307,626.14712 L 506.24307,635.94298 L 516.68712,626.45393 L 516.68712,617.35563 L 506.24307,626.14712 z" />
      <path
         sodipodi:type="inkscape:box3dside"
         id="path3875"
         style="fill:#6c5353;fill-opacity:1;fill-rule:evenodd;stroke:none;stroke-width:1px;stroke-linecap:butt;stroke-linejoin:round;stroke-opacity:1"
         inkscape:box3dsidetype="3"
         d="M 505.24359,625.87385 L 506.24307,626.14712 L 506.24307,635.94298 L 505.24359,635.6556 L 505.24359,625.87385 z" />
    </g>
    <path
       sodipodi:type="arc"
       style="opacity:1;fill:#000000;fill-opacity:1;stroke:#000000;stroke-opacity:1"
       id="path3887"
       sodipodi:cx="520.11438"
       sodipodi:cy="613.80353"
       sodipodi:rx="2.021646"
       sodipodi:ry="1.6540741"
       d="M 522.13603,613.80353 A 2.021646,1.6540741 0 1 1 518.09273,613.80353 A 2.021646,1.6540741 0 1 1 522.13603,613.80353 z"
       transform="matrix(0.2965967,0,0,0.4180626,352.89324,370.79533)" />
    <path
       sodipodi:type="arc"
       style="opacity:1;fill:#000000;fill-opacity:1;stroke:#000000;stroke-opacity:1"
       id="path3889"
       sodipodi:cx="520.11438"
       sodipodi:cy="613.80353"
       sodipodi:rx="2.021646"
       sodipodi:ry="1.6540741"
       d="M 522.13603,613.80353 A 2.021646,1.6540741 0 1 1 518.09273,613.80353 A 2.021646,1.6540741 0 1 1 522.13603,613.80353 z"
       transform="matrix(0.2965967,0,0,0.4180626,353.16896,373.5522)"
       inkscape:transform-center-x="0.77567886"
       inkscape:transform-center-y="0.86757183" />
    <path
       sodipodi:type="arc"
       style="opacity:1;fill:#000000;fill-opacity:1;stroke:#000000;stroke-opacity:1"
       id="path3891"
       sodipodi:cx="520.11438"
       sodipodi:cy="613.80353"
       sodipodi:rx="2.021646"
       sodipodi:ry="1.6540741"
       d="M 522.13603,613.80353 A 2.021646,1.6540741 0 1 1 518.09273,613.80353 A 2.021646,1.6540741 0 1 1 522.13603,613.80353 z"
       transform="matrix(0.2965967,0,0,0.4180626,353.35275,376.1252)" />
    <path
       id="path4253"
       style="opacity:1;fill:#241c1c;fill-rule:evenodd;stroke:none;stroke-width:1px;stroke-linecap:butt;stroke-linejoin:round;stroke-opacity:1"
       d="M 200.03517,544.33912 L 451.46295,646.25018 L 561.85511,552.9904 L 373.18525,515.47126 L 200.03517,544.33912 z" />
    <path
       id="path3691"
       style="fill:#e9afaf;fill-rule:evenodd;stroke:none;stroke-width:1px;stroke-linecap:butt;stroke-linejoin:round;stroke-opacity:1"
       d="M 466.32223,213.07036 L 466.32223,673.46636 L 473.66079,649.46892 L 473.66079,216.55547 L 466.32223,213.07036 z" />
    <path
       sodipodi:type="arc"
       style="opacity:1;fill:#000000;fill-opacity:1;stroke:#000000;stroke-opacity:1"
       id="path3893"
       sodipodi:cx="520.11438"
       sodipodi:cy="613.80353"
       sodipodi:rx="2.021646"
       sodipodi:ry="1.6540741"
       d="M 522.13603,613.80353 A 2.021646,1.6540741 0 1 1 518.09273,613.80353 A 2.021646,1.6540741 0 1 1 522.13603,613.80353 z"
       transform="matrix(0.2965967,0,0,0.4180626,354.96085,368.86561)" />
    <path
       sodipodi:type="arc"
       style="opacity:1;fill:#000000;fill-opacity:1;stroke:#000000;stroke-opacity:1"
       id="path3895"
       sodipodi:cx="520.11438"
       sodipodi:cy="613.80353"
       sodipodi:rx="2.021646"
       sodipodi:ry="1.6540741"
       d="M 522.13603,613.80353 A 2.021646,1.6540741 0 1 1 518.09273,613.80353 A 2.021646,1.6540741 0 1 1 522.13603,613.80353 z"
       transform="matrix(0.2965967,0,0,0.4180626,355.23657,371.62248)"
       inkscape:transform-center-x="0.77567886"
       inkscape:transform-center-y="0.86757183" />
    <path
       sodipodi:type="arc"
       style="opacity:1;fill:#000000;fill-opacity:1;stroke:#000000;stroke-opacity:1"
       id="path3897"
       sodipodi:cx="520.11438"
       sodipodi:cy="613.80353"
       sodipodi:rx="2.021646"
       sodipodi:ry="1.6540741"
       d="M 522.13603,613.80353 A 2.021646,1.6540741 0 1 1 518.09273,613.80353 A 2.021646,1.6540741 0 1 1 522.13603,613.80353 z"
       transform="matrix(0.2965967,0,0,0.4180626,355.42036,374.19548)" />
    <path
       sodipodi:type="arc"
       style="opacity:1;fill:#000000;fill-opacity:1;stroke:#000000;stroke-opacity:1"
       id="path3899"
       sodipodi:cx="520.11438"
       sodipodi:cy="613.80353"
       sodipodi:rx="2.021646"
       sodipodi:ry="1.6540741"
       d="M 522.13603,613.80353 A 2.021646,1.6540741 0 1 1 518.09273,613.80353 A 2.021646,1.6540741 0 1 1 522.13603,613.80353 z"
       transform="matrix(0.2965967,0,0,0.4180626,356.79871,367.21154)" />
    <path
       sodipodi:type="arc"
       style="opacity:1;fill:#000000;fill-opacity:1;stroke:#000000;stroke-opacity:1"
       id="path3901"
       sodipodi:cx="520.11438"
       sodipodi:cy="613.80353"
       sodipodi:rx="2.021646"
       sodipodi:ry="1.6540741"
       d="M 522.13603,613.80353 A 2.021646,1.6540741 0 1 1 518.09273,613.80353 A 2.021646,1.6540741 0 1 1 522.13603,613.80353 z"
       transform="matrix(0.2965967,0,0,0.4180626,357.07443,369.96841)"
       inkscape:transform-center-x="0.77567886"
       inkscape:transform-center-y="0.86757183" />
    <path
       sodipodi:type="arc"
       style="opacity:1;fill:#000000;fill-opacity:1;stroke:#000000;stroke-opacity:1"
       id="path3903"
       sodipodi:cx="520.11438"
       sodipodi:cy="613.80353"
       sodipodi:rx="2.021646"
       sodipodi:ry="1.6540741"
       d="M 522.13603,613.80353 A 2.021646,1.6540741 0 1 1 518.09273,613.80353 A 2.021646,1.6540741 0 1 1 522.13603,613.80353 z"
       transform="matrix(0.2965967,0,0,0.4180626,357.25822,372.54141)" />
    <path
       sodipodi:type="arc"
       style="opacity:1;fill:#000000;fill-opacity:1;stroke:#000000;stroke-opacity:1"
       id="path3905"
       sodipodi:cx="520.11438"
       sodipodi:cy="613.80353"
       sodipodi:rx="2.021646"
       sodipodi:ry="1.6540741"
       d="M 522.13603,613.80353 A 2.021646,1.6540741 0 1 1 518.09273,613.80353 A 2.021646,1.6540741 0 1 1 522.13603,613.80353 z"
       transform="matrix(0.2965967,0,0,0.4180626,358.63658,365.0061)" />
    <path
       sodipodi:type="arc"
       style="opacity:1;fill:#000000;fill-opacity:1;stroke:#000000;stroke-opacity:1"
       id="path3907"
       sodipodi:cx="520.11438"
       sodipodi:cy="613.80353"
       sodipodi:rx="2.021646"
       sodipodi:ry="1.6540741"
       d="M 522.13603,613.80353 A 2.021646,1.6540741 0 1 1 518.09273,613.80353 A 2.021646,1.6540741 0 1 1 522.13603,613.80353 z"
       transform="matrix(0.2965967,0,0,0.4180626,358.9123,367.76297)"
       inkscape:transform-center-x="0.77567886"
       inkscape:transform-center-y="0.86757183" />
    <path
       sodipodi:type="arc"
       style="opacity:1;fill:#000000;fill-opacity:1;stroke:#000000;stroke-opacity:1"
       id="path3909"
       sodipodi:cx="520.11438"
       sodipodi:cy="613.80353"
       sodipodi:rx="2.021646"
       sodipodi:ry="1.6540741"
       d="M 522.13603,613.80353 A 2.021646,1.6540741 0 1 1 518.09273,613.80353 A 2.021646,1.6540741 0 1 1 522.13603,613.80353 z"
       transform="matrix(0.2965967,0,0,0.4180626,359.09609,370.33597)" />
    <path
       sodipodi:type="arc"
       style="opacity:1;fill:#000000;fill-opacity:1;stroke:#000000;stroke-opacity:1"
       id="path3911"
       sodipodi:cx="520.11438"
       sodipodi:cy="613.80353"
       sodipodi:rx="2.021646"
       sodipodi:ry="1.6540741"
       d="M 522.13603,613.80353 A 2.021646,1.6540741 0 1 1 518.09273,613.80353 A 2.021646,1.6540741 0 1 1 522.13603,613.80353 z"
       transform="matrix(0.2965967,0,0,0.4180626,361.02579,363.35204)" />
    <path
       sodipodi:type="arc"
       style="opacity:1;fill:#000000;fill-opacity:1;stroke:#000000;stroke-opacity:1"
       id="path3913"
       sodipodi:cx="520.11438"
       sodipodi:cy="613.80353"
       sodipodi:rx="2.021646"
       sodipodi:ry="1.6540741"
       d="M 522.13603,613.80353 A 2.021646,1.6540741 0 1 1 518.09273,613.80353 A 2.021646,1.6540741 0 1 1 522.13603,613.80353 z"
       transform="matrix(0.2965967,0,0,0.4180626,361.30151,366.10891)"
       inkscape:transform-center-x="0.77567886"
       inkscape:transform-center-y="0.86757183" />
    <path
       sodipodi:type="arc"
       style="opacity:1;fill:#000000;fill-opacity:1;stroke:#000000;stroke-opacity:1"
       id="path3915"
       sodipodi:cx="520.11438"
       sodipodi:cy="613.80353"
       sodipodi:rx="2.021646"
       sodipodi:ry="1.6540741"
       d="M 522.13603,613.80353 A 2.021646,1.6540741 0 1 1 518.09273,613.80353 A 2.021646,1.6540741 0 1 1 522.13603,613.80353 z"
       transform="matrix(0.2965967,0,0,0.4180626,361.4853,368.68191)" />
    <path
       sodipodi:type="arc"
       style="opacity:1;fill:#000000;fill-opacity:1;stroke:#382fff;stroke-opacity:1"
       id="path3931"
       sodipodi:cx="530.03882"
       sodipodi:cy="610.58728"
       sodipodi:rx="1.6540742"
       sodipodi:ry="1.7459671"
       d="M 531.69289,610.58728 A 1.6540742,1.7459671 0 1 1 528.38474,610.58728 A 1.6540742,1.7459671 0 1 1 531.69289,610.58728 z"
       transform="matrix(0.6868642,-0.2492852,-0.290032,-0.7991354,339.65098,1231.948)" />
    <path
       sodipodi:type="arc"
       style="opacity:1;fill:#000000;fill-opacity:1;stroke:#ff2f2f;stroke-opacity:1"
       id="path3943"
       sodipodi:cx="530.03882"
       sodipodi:cy="610.58728"
       sodipodi:rx="1.6540742"
       sodipodi:ry="1.7459671"
       d="M 531.69289,610.58728 A 1.6540742,1.7459671 0 1 1 528.38474,610.58728 A 1.6540742,1.7459671 0 1 1 531.69289,610.58728 z"
       transform="matrix(0.6868642,-0.2492852,-0.290032,-0.7991354,342.95918,1229.6506)" />
    <path
       sodipodi:type="arc"
       style="opacity:1;fill:#000000;fill-opacity:1;stroke:#ffee11;stroke-opacity:1"
       id="path3945"
       sodipodi:cx="530.03882"
       sodipodi:cy="610.58728"
       sodipodi:rx="1.6540742"
       sodipodi:ry="1.7459671"
       d="M 531.69289,610.58728 A 1.6540742,1.7459671 0 1 1 528.38474,610.58728 A 1.6540742,1.7459671 0 1 1 531.69289,610.58728 z"
       transform="matrix(0.5618902,-0.4671241,-0.5434778,-0.6537338,567.11833,1253.9369)" />
    <path
       sodipodi:type="arc"
       style="opacity:1;fill:#000000;fill-opacity:1;stroke:#444444;stroke-opacity:1"
       id="path3947"
       sodipodi:cx="530.03882"
       sodipodi:cy="610.58728"
       sodipodi:rx="1.6540742"
       sodipodi:ry="1.7459671"
       d="M 531.69289,610.58728 A 1.6540742,1.7459671 0 1 1 528.38474,610.58728 A 1.6540742,1.7459671 0 1 1 531.69289,610.58728 z"
       transform="matrix(0.6872102,-0.4114415,-0.3164915,-0.9963689,332.15404,1458.5773)"
       inkscape:transform-center-x="1.6695761"
       inkscape:transform-center-y="0.40461245" />
    <path
       sodipodi:type="arc"
       style="opacity:1;fill:#000000;fill-opacity:1;stroke:#444444;stroke-opacity:1"
       id="path3949"
       sodipodi:cx="530.03882"
       sodipodi:cy="610.58728"
       sodipodi:rx="1.6540742"
       sodipodi:ry="1.7459671"
       d="M 531.69289,610.58728 A 1.6540742,1.7459671 0 1 1 528.38474,610.58728 A 1.6540742,1.7459671 0 1 1 531.69289,610.58728 z"
       transform="matrix(0.7407908,-0.2255245,-0.1655509,-1.0496847,227.63507,1380.9444)"
       inkscape:transform-center-x="1.7140886"
       inkscape:transform-center-y="-0.12008126" />
    <path
       id="path3967"
       style="opacity:0.73000004;fill:#000000;fill-opacity:1;fill-rule:evenodd;stroke:none;stroke-width:1px;stroke-linecap:butt;stroke-linejoin:round;stroke-opacity:1"
       d="M 541.5983,604.96715 L 539.57665,604.425 L 544.47816,600.4469 L 546.4676,600.9675 L 541.5983,604.96715 z" />
    <path
       id="path3969"
       style="opacity:0.82999998;fill:#808080;fill-opacity:1;fill-rule:evenodd;stroke:none;stroke-width:1px;stroke-linecap:butt;stroke-linejoin:round;stroke-opacity:1"
       d="M 539.57665,598.201 L 539.57665,604.425 L 544.47816,600.4469 L 544.47816,594.35857 L 539.57665,598.201 z" />
    <path
       id="path3971"
       style="opacity:0.68999999;fill:#000000;fill-opacity:1;fill-rule:evenodd;stroke:none;stroke-width:1px;stroke-linecap:butt;stroke-linejoin:round;stroke-opacity:1"
       d="M 546.4676,594.86432 L 544.47816,594.35857 L 544.47816,600.4469 L 546.4676,600.9675 L 546.4676,594.86432 z" />
    <path
       id="path3973"
       style="opacity:1;fill:#f18a92;fill-opacity:0.9372549;fill-rule:evenodd;stroke:none;stroke-width:1px;stroke-linecap:butt;stroke-linejoin:round;stroke-opacity:1"
       d="M 541.5983,598.72763 L 539.57665,598.201 L 544.47816,594.35857 L 546.4676,594.86432 L 541.5983,598.72763 z" />
    <path
       id="path3977"
       style="opacity:1;fill:#f18a92;fill-opacity:0.9372549;fill-rule:evenodd;stroke:none;stroke-width:1px;stroke-linecap:butt;stroke-linejoin:round;stroke-opacity:1"
       d="M 541.5983,598.72763 L 539.57665,598.201 L 539.57665,604.425 L 541.5983,604.96715 L 541.5983,598.72763 z" />
    <g
       sodipodi:type="inkscape:box3d"
       style="opacity:0.83999999;fill:#808080;fill-opacity:0.9372549;stroke:#444444;stroke-opacity:1"
       id="g4009"
       inkscape:perspectiveID="#perspective2680"
       inkscape:corner0="-0.26300717 : 0.3225036 : 0 : 1"
       inkscape:corner7="-0.26357964 : 0.31685236 : 0.25 : 1">
      <path
         sodipodi:type="inkscape:box3dside"
         id="path4019"
         style="fill:#afafde;fill-rule:evenodd;stroke:none;stroke-width:1px;stroke-linecap:butt;stroke-linejoin:round;stroke-opacity:1"
         inkscape:box3dsidetype="13"
         d="M 554.18319,593.78398 L 554.94734,593.95425 L 609.0597,547.95644 L 608.45772,547.85598 L 554.18319,593.78398 z" />
      <path
         sodipodi:type="inkscape:box3dside"
         id="path4011"
         style="fill:#353564;fill-rule:evenodd;stroke:none;stroke-width:1px;stroke-linecap:butt;stroke-linejoin:round;stroke-opacity:1"
         inkscape:box3dsidetype="6"
         d="M 554.18319,586.29336 L 554.18319,593.78398 L 608.45772,547.85598 L 608.45772,542.26269 L 554.18319,586.29336 z" />
      <path
         sodipodi:type="inkscape:box3dside"
         id="path4021"
         style="fill:#e9e9ff;fill-rule:evenodd;stroke:none;stroke-width:1px;stroke-linecap:butt;stroke-linejoin:round;stroke-opacity:1"
         inkscape:box3dsidetype="11"
         d="M 608.45772,542.26269 L 609.0597,542.35991 L 609.0597,547.95644 L 608.45772,547.85598 L 608.45772,542.26269 z" />
      <path
         sodipodi:type="inkscape:box3dside"
         id="path4013"
         style="fill:#4d4d9f;fill-rule:evenodd;stroke:none;stroke-width:1px;stroke-linecap:butt;stroke-linejoin:round;stroke-opacity:1"
         inkscape:box3dsidetype="5"
         d="M 554.18319,586.29336 L 554.94734,586.45781 L 609.0597,542.35991 L 608.45772,542.26269 L 554.18319,586.29336 z" />
      <path
         sodipodi:type="inkscape:box3dside"
         id="path4017"
         style="fill:#d7d7ff;fill-rule:evenodd;stroke:none;stroke-width:1px;stroke-linecap:butt;stroke-linejoin:round;stroke-opacity:1"
         inkscape:box3dsidetype="14"
         d="M 554.94734,586.45781 L 554.94734,593.95425 L 609.0597,547.95644 L 609.0597,542.35991 L 554.94734,586.45781 z" />
      <path
         sodipodi:type="inkscape:box3dside"
         id="path4015"
         style="fill:#8686bf;fill-rule:evenodd;stroke:none;stroke-width:1px;stroke-linecap:butt;stroke-linejoin:round;stroke-opacity:1"
         inkscape:box3dsidetype="3"
         d="M 554.18319,586.29336 L 554.94734,586.45781 L 554.94734,593.95425 L 554.18319,593.78398 L 554.18319,586.29336 z" />
    </g>
    <path
       sodipodi:type="arc"
       style="opacity:0.83999999;fill:#09090b;fill-opacity:0.9372549;stroke:#444444;stroke-opacity:1"
       id="path4023"
       sodipodi:cx="482.53995"
       sodipodi:cy="650.96948"
       sodipodi:rx="4.0088582"
       sodipodi:ry="4.6418362"
       d="M 486.54881,650.96948 A 4.0088582,4.6418362 0 1 1 478.53109,650.96948 A 4.0088582,4.6418362 0 1 1 486.54881,650.96948 z"
       transform="matrix(0.9003345,-0.2102535,0.282411,0.9579648,-136.09136,128.11099)" />
    <rect
       style="opacity:0.83999999;fill:#09090b;fill-opacity:0.9372549;stroke:#000000;stroke-width:0.42581269;stroke-opacity:1"
       id="rect4025"
       width="0.722045"
       height="0.47697523"
       x="-219.54648"
       y="840.92761"
       transform="matrix(0.8048645,-0.5934587,0.7845218,0.6201013,0,0)" />
    <path
       sodipodi:type="arc"
       style="opacity:1;fill:#000000;fill-opacity:1;stroke:#000000;stroke-opacity:1"
       id="path4027"
       sodipodi:cx="520.11438"
       sodipodi:cy="613.80353"
       sodipodi:rx="2.021646"
       sodipodi:ry="1.6540741"
       d="M 522.13603,613.80353 A 2.021646,1.6540741 0 1 1 518.09273,613.80353 A 2.021646,1.6540741 0 1 1 522.13603,613.80353 z"
       transform="matrix(0.1103923,-6.8284749e-2,0.1350524,0.2183319,340.48191,552.55578)" />
    <path
       sodipodi:type="arc"
       style="opacity:1;fill:#000000;fill-opacity:1;stroke:#000000;stroke-opacity:1"
       id="path4029"
       sodipodi:cx="520.11438"
       sodipodi:cy="613.80353"
       sodipodi:rx="2.021646"
       sodipodi:ry="1.6540741"
       d="M 522.13603,613.80353 A 2.021646,1.6540741 0 1 1 518.09273,613.80353 A 2.021646,1.6540741 0 1 1 522.13603,613.80353 z"
       transform="matrix(0.1178477,-5.4416755e-2,0.1076245,0.2330771,354.37316,535.56962)" />
    <path
       sodipodi:type="arc"
       style="opacity:1;fill:#000000;fill-opacity:1;stroke:#000000;stroke-opacity:1"
       id="path4031"
       sodipodi:cx="520.11438"
       sodipodi:cy="613.80353"
       sodipodi:rx="2.021646"
       sodipodi:ry="1.6540741"
       d="M 522.13603,613.80353 A 2.021646,1.6540741 0 1 1 518.09273,613.80353 A 2.021646,1.6540741 0 1 1 522.13603,613.80353 z"
       transform="matrix(0.1110572,-6.7197779e-2,0.1329026,0.2196472,343.41235,549.69318)" />
    <path
       sodipodi:type="arc"
       style="opacity:1;fill:#000000;fill-opacity:1;stroke:#000000;stroke-opacity:1"
       id="path4033"
       sodipodi:cx="520.11438"
       sodipodi:cy="613.80353"
       sodipodi:rx="2.021646"
       sodipodi:ry="1.6540741"
       d="M 522.13603,613.80353 A 2.021646,1.6540741 0 1 1 518.09273,613.80353 A 2.021646,1.6540741 0 1 1 522.13603,613.80353 z"
       transform="matrix(0.1050676,-7.6223764e-2,0.150754,0.2078009,336.49148,560.94269)" />
    <path
       sodipodi:type="arc"
       style="opacity:1;fill:#000000;fill-opacity:1;stroke:#000000;stroke-opacity:1"
       id="path4035"
       sodipodi:cx="520.11438"
       sodipodi:cy="613.80353"
       sodipodi:rx="2.021646"
       sodipodi:ry="1.6540741"
       d="M 522.13603,613.80353 A 2.021646,1.6540741 0 1 1 518.09273,613.80353 A 2.021646,1.6540741 0 1 1 522.13603,613.80353 z"
       transform="matrix(0.1115735,-6.6337255e-2,0.1312007,0.220668,342.56417,547.51977)" />
    <path
       sodipodi:type="arc"
       style="opacity:1;fill:#000000;fill-opacity:1;stroke:#000000;stroke-opacity:1"
       id="path4037"
       sodipodi:cx="520.11438"
       sodipodi:cy="613.80353"
       sodipodi:rx="2.021646"
       sodipodi:ry="1.6540741"
       d="M 522.13603,613.80353 A 2.021646,1.6540741 0 1 1 518.09273,613.80353 A 2.021646,1.6540741 0 1 1 522.13603,613.80353 z"
       transform="matrix(0.1110518,-6.7206931e-2,0.1329207,0.2196362,342.54714,548.01724)" />
    <path
       sodipodi:type="arc"
       style="opacity:1;fill:#000000;fill-opacity:1;stroke:#000000;stroke-opacity:1"
       id="path4039"
       sodipodi:cx="520.11438"
       sodipodi:cy="613.80353"
       sodipodi:rx="2.021646"
       sodipodi:ry="1.6540741"
       d="M 522.13603,613.80353 A 2.021646,1.6540741 0 1 1 518.09273,613.80353 A 2.021646,1.6540741 0 1 1 522.13603,613.80353 z"
       transform="matrix(0.1172496,-5.569378e-2,0.1101502,0.2318942,351.77842,535.64289)" />
    <flowRoot
       xml:space="preserve"
       id="flowRoot4049"
       style="font-size:40px;font-style:normal;font-weight:normal;fill:#000000;fill-opacity:1;stroke:none;stroke-width:1px;stroke-linecap:butt;stroke-linejoin:miter;stroke-opacity:1;font-family:Bitstream Vera Sans"><flowRegion
         id="flowRegion4051"><rect
           id="rect4053"
           width="27.773912"
           height="54.730946"
           x="159.29155"
           y="368.54581" /></flowRegion><flowPara
         id="flowPara4055">D</flowPara></flowRoot>    <a
       id="a3728"
       transform="translate(63.41374,11.172518)"
       style="fill:#ff8080"
       inkscape:export-filename="/home/blacklotus/chaox-ng-2.png"
       inkscape:export-xdpi="90"
       inkscape:export-ydpi="90">
      <a
         id="a3737"
         style="fill:#ff8080">
        <path
           id="path3693"
           style="fill:#ff8080;fill-rule:evenodd;stroke:none;stroke-width:1px;stroke-linecap:butt;stroke-linejoin:round;stroke-opacity:1"
           d="M 43.555169,273.87026 L 402.85933,203.89737 L 402.85933,664.10263 L 43.555169,527.39794 L 43.555169,273.87026 z" />
      </a>
    </a>
    <text
       xml:space="preserve"
       style="font-size:44.00065613px;font-style:normal;font-weight:normal;fill:#000000;fill-opacity:1;stroke:none;stroke-width:1px;stroke-linecap:butt;stroke-linejoin:miter;stroke-opacity:1;font-family:Bitstream Vera Sans"
       x="262.02988"
       y="352.19083"
       id="text4057"
       transform="matrix(0.9461788,0.1888962,-0.2058031,1.015796,0,0)"><tspan
         sodipodi:role="line"
         id="tspan4059"
         x="262.02988"
         y="352.19083">D</tspan></text>
    <text
       xml:space="preserve"
       style="font-size:32.3640213px;font-style:normal;font-weight:normal;fill:#000000;fill-opacity:1;stroke:none;stroke-width:1px;stroke-linecap:butt;stroke-linejoin:miter;stroke-opacity:1;font-family:Bitstream Vera Sans"
       x="247.52301"
       y="375.3649"
       id="text4061"
       transform="matrix(0.9293402,3.6052541e-2,-3.9161526e-2,1.074513,0,0)"><tspan
         sodipodi:role="line"
         id="tspan4063"
         x="247.52301"
         y="375.3649">a</tspan></text>
    <text
       xml:space="preserve"
       style="font-size:43.67414093px;font-style:normal;font-weight:normal;fill:#000000;fill-opacity:1;stroke:none;stroke-width:1px;stroke-linecap:butt;stroke-linejoin:miter;stroke-opacity:1;font-family:Bitstream Vera Sans"
       x="162.11871"
       y="420.36871"
       id="text4065"
       transform="matrix(0.9020236,-0.1935396,0.2273983,1.0598276,0,0)"><tspan
         sodipodi:role="line"
         id="tspan4067"
         x="162.11871"
         y="420.36871">n</tspan></text>
    <text
       xml:space="preserve"
       style="font-size:36.32850647px;font-style:normal;font-weight:normal;fill:#000000;fill-opacity:1;stroke:none;stroke-width:1px;stroke-linecap:butt;stroke-linejoin:miter;stroke-opacity:1;font-family:Bitstream Vera Sans"
       x="334.54297"
       y="356.84811"
       id="text4069"
       transform="matrix(1.0339363,0.2515118,-0.2221281,0.9131434,0,0)"
       inkscape:transform-center-y="57.521751"
       inkscape:transform-center-x="103.82711"><tspan
         sodipodi:role="line"
         id="tspan4071"
         x="334.54297"
         y="356.84811">g</tspan></text>
    <text
       xml:space="preserve"
       style="font-size:65.60932159px;font-style:normal;font-weight:normal;fill:#000000;fill-opacity:1;stroke:none;stroke-width:1px;stroke-linecap:butt;stroke-linejoin:miter;stroke-opacity:1;font-family:Bitstream Vera Sans"
       x="263.34323"
       y="416.82495"
       id="text4073"
       transform="matrix(0.8980791,-0.1172457,0.1429315,1.0948277,0,0)"><tspan
         sodipodi:role="line"
         id="tspan4075"
         x="263.34323"
         y="416.82495">o</tspan></text>
    <path
       style="fill:none;fill-rule:evenodd;stroke:#000000;stroke-width:1px;stroke-linecap:butt;stroke-linejoin:miter;stroke-opacity:1"
       d="M 456.3696,663.93352 C 456.92022,664.07117 455.86196,664.9488 455.60814,665.45644 C 455.23548,666.20175 457.10201,664.17765 457.89253,664.44116 C 459.58798,665.00631 459.47306,664.41779 459.92309,666.2179 C 460.33204,667.85371 457.61887,666.96945 457.13106,666.72554 C 456.52095,666.42049 457.539,668.59067 456.87724,668.75611 C 455.59933,669.07559 454.78227,667.10438 454.33904,666.2179 C 453.99557,666.3728 454.1063,665.75243 454.08522,665.71026"
       id="path4225" />
    <path
       style="fill:none;fill-rule:evenodd;stroke:#000000;stroke-width:1px;stroke-linecap:butt;stroke-linejoin:miter;stroke-opacity:1"
       d="M 461.69984,666.97937 C 461.45164,666.48296 459.43422,668.99116 459.16163,669.26375 C 458.2026,670.22278 461.02026,670.53285 461.95366,670.53285 C 462.14284,670.53285 462.29208,670.70207 462.4613,670.78668"
       id="path4227" />
    <text
       xml:space="preserve"
       style="font-size:3.73507762px;font-style:normal;font-weight:normal;fill:#000000;fill-opacity:1;stroke:none;stroke-width:1px;stroke-linecap:butt;stroke-linejoin:miter;stroke-opacity:1;font-family:Bitstream Vera Sans"
       x="168.19298"
       y="978.49567"
       id="text4229"
       transform="matrix(0.9785706,-0.7203484,0.4008461,0.7268266,0,0)"
       inkscape:transform-center-y="-101.84847"
       inkscape:transform-center-x="-99.776785"><tspan
         sodipodi:role="line"
         id="tspan4231"
         x="168.19298"
         y="978.49567">DVD</tspan></text>
    <path
       style="fill:none;fill-rule:evenodd;stroke:#000000;stroke-width:1.14159214px;stroke-linecap:butt;stroke-linejoin:miter;stroke-opacity:1"
       d="M 565.38216,582.11323 C 572.97873,575.70309 565.21432,582.33099 565.38216,582.11323 z"
       id="path4243" />
  </g>
</svg>
